PathFileType	4	(X/Y/Z)	C:/Users/opensim2020/Desktop/walking_exp_matlab/subject01_walking15_straight_01.trc																																																																																																																															
DataRate	CameraRate	NumFrames	NumMarkers	Units	OrigDataRate	OrigDataStartFrame	OrigNumFrames																																																																																																																											
100	100	8	43	mm	100	777	125																																																																																																																											
Frame#	Time	LFHD			RFHD			LBHD			RBHD			C7			T10			CLAV			STRN			RBAK			LSHO			LUPA			LELB			LFRM			LWRA			LWRB			LFIN			RSHO			RUPA			RELB			RFRM			RWRA			RWRB			RFIN			LASI			RASI			LPSI			RPSI			LTHI			LKNE			LTIB			LANK			LHEE			LTOE			RTHI			RKNE			RTIB			RANK			RHEE			RTOE			*39			*40			*41			*42		
		X1	Y1	Z1	X2	Y2	Z2	X3	Y3	Z3	X4	Y4	Z4	X5	Y5	Z5	X6	Y6	Z6	X7	Y7	Z7	X8	Y8	Z8	X9	Y9	Z9	X10	Y10	Z10	X11	Y11	Z11	X12	Y12	Z12	X13	Y13	Z13	X14	Y14	Z14	X15	Y15	Z15	X16	Y16	Z16	X17	Y17	Z17	X18	Y18	Z18	X19	Y19	Z19	X20	Y20	Z20	X21	Y21	Z21	X22	Y22	Z22	X23	Y23	Z23	X24	Y24	Z24	X25	Y25	Z25	X26	Y26	Z26	X27	Y27	Z27	X28	Y28	Z28	X29	Y29	Z29	X30	Y30	Z30	X31	Y31	Z31	X32	Y32	Z32	X33	Y33	Z33	X34	Y34	Z34	X35	Y35	Z35	X36	Y36	Z36	X37	Y37	Z37	X38	Y38	Z38	X39	Y39	Z39	X40	Y40	Z40	X41	Y41	Z41	X42	Y42	Z42	X43	Y43	Z43
																																																																																																																																		
110	1.09	527.87909	1654.49841	1345.10376	572.90424	1667.53381	1448.69702	417.93851	1616.63184	1389.72034	462.75421	1628.87585	1499.88184	386.20282	1425.0304	1428.07715	345.78757	1131.60779	1454.35889	533.84979	1357.81482	1431.54395	572.83209	1202.0979	1435.48914	329.66547	1236.58032	1513.34644	470.18518	1386.95581	1272.73145	462.66428	1205.19739	1187.44458	483.40948	1051.91138	1179.57104	583.30737	989.38055	1160.03943	717.90906	960.78101	1179.12341	681.90851	917.06366	1160.69849	762.95227	901.84198	1145.51685	465.99384	1400.80151	1579.64404	375.86569	1216.18042	1684.75159	363.75488	1095.96057	1696.08472	352.14902	982.61902	1737.73267	383.86661	841.64532	1731.07837	346.6796	863.36096	1770.37305	349.68323	774.66064	1777.13672	515.24762	924.91235	1345.42761	533.34625	931.43622	1561.80859	334.08179	939.05823	1417.34631	349.37097	938.05347	1561.01245	419.1095	595.77594	1314.9801	376.51041	465.75888	1336.62366	282.7261	299.32651	1342.50549	207.86899	96.32913	1407.44507	158.38251	81.16421	1461.30847	342.80411	34.50687	1402.05383	572.99976	610.06714	1638.97217	635.82343	467.47348	1614.72607	631.6424	294.1828	1634.40552	677.37622	86.14541	1599.84485	642.76837	33.16145	1550.75378	821.07452	87.13704	1597.69556	555.7052	1699.55139	1426.72888	1973.15417	1023.4917	-3101.98047	2012.50269	1022.16937	-3140.69116	NaN	NaN	NaN
111	1.1	541.52362	1653.07178	1345.43799	587.11707	1665.99805	1448.59241	432.22705	1615.06372	1390.50793	477.26874	1627.38086	1500.33643	400.24973	1423.60999	1428.80225	359.98209	1130.14148	1455.58887	547.96686	1356.32178	1431.72559	586.81256	1200.60461	1435.25598	344.14551	1234.80115	1514.1825	483.79745	1385.70996	1273.12671	476.69638	1204.27759	1187.63318	498.23691	1051.21924	1179.09753	599.53088	991.13422	1159.57458	734.72003	966.20673	1178.47705	700.02161	921.49426	1160.01819	781.36279	908.5838	1144.901	480.7182	1399.22571	1580.23584	388.56982	1215.38318	1684.92859	375.15927	1095.30957	1696.2688	361.89227	982.26306	1737.94177	391.57483	840.82965	1731.20642	354.5928	863.08447	1770.58301	356.33701	774.29846	1777.12915	528.23779	923.58154	1344.57654	548.83453	929.64069	1560.95374	347.94504	937.84888	1419.15271	364.81189	936.5387	1562.62952	427.65656	595.77246	1314.24536	383.9726	465.93906	1336.05444	287.82678	300.94321	1342.07703	209.36368	99.13008	1406.74072	159.62694	85.07622	1460.55322	342.87839	34.52621	1401.94373	583.09528	606.39587	1640.53467	651.02789	466.86404	1613.60315	654.64032	294.51834	1634.50146	708.09033	87.8351	1599.99158	676.07703	32.42992	1551.50232	851.80316	94.75191	1595.62915	569.87573	1698.05457	1426.77661	1973.18433	1023.5061	-3101.97681	2012.52429	1022.16602	-3140.71948	NaN	NaN	NaN
112	1.11	555.2063	1651.6283	1345.74158	601.64014	1664.62622	1448.80957	446.01263	1613.75781	1391.26294	491.88272	1625.9281	1500.93726	414.43521	1422.25964	1429.74268	374.31805	1128.64355	1456.76904	562.09528	1354.86011	1431.96204	600.94635	1199.18164	1435.03857	358.65979	1233.01196	1515.17871	497.36151	1384.52734	1273.66296	490.67184	1203.4115	1187.9248	512.70551	1050.41785	1178.6958	615.29657	992.64868	1158.97363	750.98383	971.21704	1177.93591	717.51978	925.69141	1159.41284	799.00598	914.71912	1144.52222	495.47211	1397.56738	1580.89441	401.32544	1214.53174	1685.12451	386.78094	1094.64246	1696.5802	372.03955	981.75464	1738.25525	400.02911	839.9624	1731.31812	363.31824	862.66693	1770.73486	364.00421	773.9303	1777.22119	541.51776	922.31116	1343.76685	564.38306	927.78772	1560.07837	361.97931	936.70416	1420.95422	380.64856	935.20978	1564.24207	437.04691	595.48035	1313.45752	392.40561	465.84598	1335.38367	293.55759	302.46472	1341.60754	211.23822	101.9904	1406.01929	161.09311	89.42242	1459.61743	342.94839	34.55726	1401.80579	593.81921	603.45715	1642.69873	666.28113	466.39691	1612.64624	676.06104	294.255	1633.93994	735.79401	89.41574	1599.58533	704.68091	32.84665	1551.28333	879.05109	100.74907	1593.30969	584.15155	1696.61938	1426.91272	1973.09888	1023.58826	-3101.91797	2012.51965	1022.12213	-3140.73413	NaN	NaN	NaN
113	1.12	569.52386	1650.15735	1346.03906	615.94672	1663.17896	1448.922	460.14783	1612.33252	1392.14392	506.56961	1624.45569	1501.56714	428.69986	1420.85315	1430.78223	388.7739	1127.1145	1457.94189	576.29547	1353.42261	1432.33496	615.17651	1197.82959	1435.04626	373.24997	1231.31018	1516.31689	510.95364	1383.43542	1274.21106	504.4509	1202.56226	1188.28406	527.04974	1049.67004	1178.35327	630.87231	994.23425	1158.75159	766.70233	975.71625	1177.43298	734.31024	929.46234	1158.79663	816.05103	920.51007	1143.72107	510.32428	1395.91797	1581.70178	414.1163	1213.67212	1685.45337	398.71054	1093.87231	1697.00549	382.6853	981.13824	1738.625	409.17581	839.0285	1731.55554	372.63129	862.05737	1770.9054	372.47815	773.30353	1777.21021	555.00702	921.17267	1343.28479	579.96234	925.95056	1559.2251	376.21735	935.57446	1422.60999	396.41641	933.92285	1565.91589	447.44971	594.98572	1312.70044	402.03067	465.52463	1334.84888	300.16785	304.04477	1341.07617	213.26387	105.28649	1405.20642	163.15465	94.09158	1458.67798	343.10898	34.62009	1401.66064	606.34009	601.42645	1643.73657	681.24609	465.81564	1611.55823	696.36981	294.47748	1633.46179	759.65503	90.53611	1598.75928	729.45404	33.08869	1550.99146	902.88831	104.64906	1590.60107	598.46887	1695.19263	1427.18799	1973.2688	1023.46063	-3101.85449	2012.46765	1022.10046	-3140.73145	NaN	NaN	NaN
114	1.13	583.12909	1648.90381	1346.57764	630.42517	1661.8064	1449.11011	474.24649	1611.01404	1393.16077	521.336	1623.10413	1502.40527	443.03781	1419.48279	1432.05334	404.36151	1125.57458	1459.57324	590.61938	1352.0415	1432.79956	629.4729	1196.48218	1434.99365	387.87045	1229.68152	1517.5481	524.17297	1382.48389	1275.10217	518.08673	1201.77795	1188.81567	540.89209	1048.93567	1178.24768	645.90881	995.55011	1158.46362	781.90424	979.72589	1177.0155	750.46387	932.87683	1158.24414	832.13	925.86957	1142.88098	525.21265	1394.24146	1582.48169	427.33774	1212.8313	1685.9032	411.01846	1093.08044	1697.57141	393.82043	980.37103	1739.07776	419.22302	838.13293	1731.90405	382.83994	861.36316	1771.29761	381.87289	772.63745	1777.38538	569.00067	920.11591	1342.5658	595.61279	924.30688	1558.32996	390.72107	934.55829	1424.23364	411.77261	933.15015	1567.68286	458.91608	594.31897	1311.9519	412.68057	465.05194	1334.28015	307.46002	305.67355	1340.35291	215.75287	108.91092	1404.2522	165.42679	99.25539	1457.56885	343.64041	34.32349	1401.59961	621.7196	600.71075	1643.71558	696.82935	465.60239	1610.67322	714.72266	293.97061	1632.30029	780.0968	90.9778	1597.81995	750.91223	32.54832	1550.48975	923.43262	106.45412	1587.88574	612.86877	1693.77515	1427.44971	1973.41736	1023.05621	-3102.09302	2012.50891	1022.11816	-3140.68164	NaN	NaN	NaN
115	1.14	597.08466	1647.5874	1347.04419	644.95215	1660.43335	1449.20471	488.49335	1609.72607	1394.27722	536.22223	1621.83313	1503.27319	457.29364	1418.18066	1433.28748	417.94647	1124.20801	1460.16077	604.94293	1350.69751	1433.38428	643.87805	1195.18982	1435.11597	402.59201	1228.21082	1518.87012	537.59131	1381.53357	1276.01306	531.42804	1200.91895	1189.38281	554.52209	1048.33813	1178.18896	660.32104	996.70856	1158.28271	796.48621	983.18414	1176.64441	766.00433	935.81842	1157.68176	847.8623	930.43201	1142.41162	540.10217	1392.63342	1583.41919	440.84714	1211.90112	1686.41602	423.69495	1092.14673	1698.17725	405.65518	979.61542	1739.6665	430.03421	837.164	1732.35437	393.71561	860.58014	1771.66992	392.1575	771.84149	1777.65076	582.72772	918.99707	1342.23486	611.38025	922.90991	1557.46313	405.45129	933.57465	1425.76062	427.44479	932.37567	1569.1925	471.42453	593.43164	1311.27441	424.57419	464.34048	1333.58496	315.46774	307.36685	1339.60669	218.79588	113.14735	1403.23486	168.08481	105.08176	1456.41797	343.90961	34.22467	1401.46301	639.28162	600.98657	1642.39294	712.99371	465.14502	1609.79907	731.21521	292.75516	1630.84314	796.30444	89.39327	1595.91748	766.92572	31.81862	1549.44751	940.19391	105.74768	1584.98474	627.26385	1692.39221	1427.7677	1973.10327	1023.4917	-3101.93921	2012.53687	1022.15546	-3140.81323	NaN	NaN	NaN
116	1.15	611.05676	1646.32031	1347.61633	659.86407	1659.31177	1449.76611	502.68423	1608.52893	1395.57214	551.19897	1620.66382	1504.2312	471.58783	1416.94958	1434.47949	432.45462	1123.14246	1461.32385	619.39325	1349.44409	1434.10437	658.36462	1193.96729	1435.271	417.31479	1226.70764	1520.14246	551.29608	1380.48401	1276.90771	544.63947	1200.13953	1190.07458	567.88074	1047.64099	1178.27319	674.21118	997.63715	1158.06531	810.57831	986.06073	1176.33984	780.82825	938.37946	1157.19214	862.82635	934.38086	1141.69019	555.04846	1391.12524	1584.50256	454.61862	1210.88501	1687.05994	436.90564	1091.19849	1698.93872	417.99789	978.68188	1740.25415	441.59854	836.15594	1732.86938	405.30225	859.75232	1772.22681	403.25287	770.89771	1777.97388	596.8587	917.85767	1341.73413	627.21942	921.8988	1556.62891	420.55292	932.44104	1427.08728	443.15173	931.61462	1570.42358	484.81198	592.39429	1310.70776	437.33102	463.38318	1332.83997	324.42438	309.07309	1338.73792	222.08122	117.39527	1402.07959	171.61452	111.27258	1455.14722	344.29858	34.19785	1401.37683	656.74805	600.29504	1638.92065	729.65631	464.24893	1608.95654	746.63788	291.96677	1630.12598	810.1413	87.99577	1594.71033	780.38373	30.02771	1548.14844	953.66071	102.81095	1582.3269	641.78448	1691.1427	1428.12354	1973.12195	1023.59052	-3101.87866	2012.51416	1022.10614	-3140.73486	NaN	NaN	NaN
117	1.16	625.01685	1645.07458	1348.21191	674.59778	1658.08948	1449.96765	516.95801	1607.39868	1396.99817	566.26825	1619.5885	1505.27563	486.03787	1415.73022	1435.93958	447.74246	1121.52039	1462.22546	633.78741	1348.24341	1434.80188	672.85168	1192.86316	1435.5238	432.1254	1225.30835	1521.3302	565.07281	1379.57495	1277.99731	557.67102	1199.33496	1190.80029	580.86938	1046.9342	1178.29541	687.72186	998.2699	1157.93652	824.15051	988.37482	1175.98267	795.07397	940.40625	1156.75171	877.01221	937.74969	1141.00415	569.98071	1389.62354	1585.59778	468.80222	1209.7417	1687.80786	450.51672	1090.10901	1699.65234	431.05246	977.67944	1740.9187	453.94049	835.06219	1733.46082	417.64069	858.73279	1772.7699	415.27802	769.93451	1778.47803	611.59082	916.83185	1341.28442	643.22864	921.20782	1555.97156	435.78717	931.20703	1428.22351	459.2363	930.42462	1570.89343	499.08664	591.22845	1310.23303	451.10458	462.32382	1332.01807	334.22278	310.83414	1337.78809	226.35049	122.13332	1400.76501	175.53288	118.08298	1453.67065	344.65228	34.28641	1401.22839	676.14496	600.85168	1636.40662	746.43866	462.93558	1607.9856	760.0647	289.67001	1628.38098	820.54578	85.28807	1592.66626	789.19525	28.95724	1546.50696	964.2627	98.16692	1580.34058	656.34827	1689.94775	1428.42615	1973.13757	1023.60748	-3101.95874	2012.47485	1022.10199	-3140.70898	NaN	NaN	NaN
